<?xml version="1.0" encoding="UTF-8" standalone="no"?>
<!-- Created with Inkscape (http://www.inkscape.org/) -->

<svg
   xmlns:dc="http://purl.org/dc/elements/1.1/"
   xmlns:cc="http://creativecommons.org/ns#"
   xmlns:rdf="http://www.w3.org/1999/02/22-rdf-syntax-ns#"
   xmlns:svg="http://www.w3.org/2000/svg"
   xmlns="http://www.w3.org/2000/svg"
   xmlns:sodipodi="http://sodipodi.sourceforge.net/DTD/sodipodi-0.dtd"
   xmlns:inkscape="http://www.inkscape.org/namespaces/inkscape"
   width="96"
   height="96"
   viewBox="0 0 25.399999 25.399999"
   version="1.1"
   id="svg8"
   inkscape:version="0.92.1 r15371"
   sodipodi:docname="info.svg">
  <defs
     id="defs2" />
  <sodipodi:namedview
     id="base"
     pagecolor="#ffffff"
     bordercolor="#666666"
     borderopacity="1.0"
     inkscape:pageopacity="0.0"
     inkscape:pageshadow="2"
     inkscape:zoom="1.609375"
     inkscape:cx="75.98636"
     inkscape:cy="20.153765"
     inkscape:document-units="mm"
     inkscape:current-layer="layer1"
     showgrid="false"
     units="px"
     inkscape:window-width="1920"
     inkscape:window-height="1019"
     inkscape:window-x="0"
     inkscape:window-y="27"
     inkscape:window-maximized="1" />
  <metadata
     id="metadata5">
    <rdf:RDF>
      <cc:Work
         rdf:about="">
        <dc:format>image/svg+xml</dc:format>
        <dc:type
           rdf:resource="http://purl.org/dc/dcmitype/StillImage" />
        <dc:title />
      </cc:Work>
    </rdf:RDF>
  </metadata>
  <g
     inkscape:label="Capa 1"
     inkscape:groupmode="layer"
     id="layer1"
     transform="translate(0,-271.60001)">
    <path
       inkscape:connector-curvature="0"
       id="path4519"
       style="font-style:normal;font-variant:normal;font-weight:normal;font-stretch:normal;font-size:medium;line-height:1.25;font-family:FontAwesome;-inkscape-font-specification:FontAwesome;letter-spacing:0px;word-spacing:0px;fill:#000000;fill-opacity:1;stroke:none;stroke-width:0.26458332"
       d="m 16.731746,291.85952 v -2.51984 q 0,-0.22048 -0.141741,-0.36223 -0.141741,-0.14174 -0.362227,-0.14174 h -1.511905 v -8.06349 q 0,-0.22048 -0.141741,-0.36223 -0.141741,-0.14174 -0.362227,-0.14174 H 9.1722223 q -0.2204861,0 -0.3622272,0.14174 -0.141741,0.14175 -0.141741,0.36223 v 2.51984 q 0,0.22049 0.141741,0.36223 0.1417411,0.14174 0.3622272,0.14174 h 1.5119047 v 5.03968 H 9.1722223 q -0.2204861,0 -0.3622272,0.14174 -0.141741,0.14175 -0.141741,0.36223 v 2.51984 q 0,0.22049 0.141741,0.36223 0.1417411,0.14174 0.3622272,0.14174 h 7.0555557 q 0.220486,0 0.362227,-0.14174 0.141741,-0.14174 0.141741,-0.36223 z m -2.015873,-14.11111 v -2.51984 q 0,-0.22049 -0.141741,-0.36223 -0.141741,-0.14174 -0.362227,-0.14174 h -3.02381 q -0.220486,0 -0.362227,0.14174 -0.141741,0.14174 -0.141741,0.36223 v 2.51984 q 0,0.22049 0.141741,0.36223 0.141741,0.14174 0.362227,0.14174 h 3.02381 q 0.220486,0 0.362227,-0.14174 0.141741,-0.14174 0.141741,-0.36223 z m 8.457217,0.48822 q 1.622148,2.77183 1.622148,6.06337 0,3.29154 -1.622148,6.07912 -1.622148,2.77182 -4.409722,4.39397 -2.771825,1.62215 -6.063368,1.62215 -3.2915426,0 -6.0791169,-1.62215 Q 3.8490578,293.15094 2.22691,290.37912 0.60476226,287.59154 0.60476226,284.3 q 0,-3.29154 1.62214774,-6.06337 1.6221478,-2.78757 4.3939731,-4.40972 2.7875743,-1.62215 6.0791169,-1.62215 3.291543,0 6.063368,1.62215 2.787574,1.62215 4.409722,4.40972 z" />
  </g>
</svg>
