<?xml version="1.0" encoding="UTF-8" standalone="no"?>
<svg
   xmlns:dc="http://purl.org/dc/elements/1.1/"
   xmlns:cc="http://creativecommons.org/ns#"
   xmlns:rdf="http://www.w3.org/1999/02/22-rdf-syntax-ns#"
   xmlns:svg="http://www.w3.org/2000/svg"
   xmlns="http://www.w3.org/2000/svg"
   xmlns:xlink="http://www.w3.org/1999/xlink"
   version="1.0"
   id="svg2"
   height="96"
   width="96">
  <defs
     id="defs4">
    <linearGradient
       id="linearGradient3273">
      <stop
         id="stop3275"
         offset="0"
         style="stop-color:#6c6c6c" />
      <stop
         id="stop3277"
         offset="1"
         style="stop-color:#3e3e3e" />
    </linearGradient>
    <linearGradient
       id="linearGradient3263">
      <stop
         id="stop3265"
         offset="0"
         style="stop-color:#f7f7f7" />
      <stop
         id="stop3267"
         offset="1"
         style="stop-color:#e1e1e1" />
    </linearGradient>
    <linearGradient
       id="linearGradient3153">
      <stop
         id="stop3155"
         offset="0"
         style="stop-color:#ffffff" />
      <stop
         id="stop3157"
         offset="1"
         style="stop-color:#ffffff;stop-opacity:0" />
    </linearGradient>
    <filter
       id="filter3315">
      <feGaussianBlur
         id="feGaussianBlur3317"
         stdDeviation="3.7" />
    </filter>
    <radialGradient
       r="92.5"
       fy="209.66924"
       fx="289.42923"
       cy="209.66924"
       cx="289.42923"
       gradientTransform="matrix(-0.8695893,0.8695893,-1.9614862,-1.9614862,681.5104,178.1413)"
       gradientUnits="userSpaceOnUse"
       id="radialGradient3328"
       xlink:href="#linearGradient3153" />
    <radialGradient
       r="53.6875"
       fy="192.84375"
       fx="199.28125"
       cy="192.84375"
       cx="199.28125"
       gradientTransform="matrix(0,2.8728591,-1,0,392.84375,-372.50696)"
       gradientUnits="userSpaceOnUse"
       id="radialGradient3349"
       xlink:href="#linearGradient3263" />
    <radialGradient
       r="68.84375"
       fy="192.84375"
       fx="199.28125"
       cy="192.84375"
       cx="199.28125"
       gradientTransform="matrix(0,2.7782148,-0.82387859,0,358.87983,-353.64609)"
       gradientUnits="userSpaceOnUse"
       id="radialGradient3352"
       xlink:href="#linearGradient3273" />
    <radialGradient
       r="92.5"
       fy="209.66924"
       fx="289.42923"
       cy="209.66924"
       cx="289.42923"
       gradientTransform="matrix(-0.8695893,0.8695893,-1.9614862,-1.9614862,681.5104,178.1413)"
       gradientUnits="userSpaceOnUse"
       id="radialGradient4380"
       xlink:href="#linearGradient3153" />
  </defs>
  <metadata
     id="metadata7">
    <rdf:RDF>
      <cc:Work
         rdf:about="">
        <dc:format>image/svg+xml</dc:format>
        <dc:type
           rdf:resource="http://purl.org/dc/dcmitype/StillImage" />
        <dc:title></dc:title>
      </cc:Work>
    </rdf:RDF>
  </metadata>
  <g
     transform="matrix(0.24099097,0,0,0.24099097,-0.85231706,-1.1621616)"
     id="g4337">
    <use
       x="0"
       y="0"
       xlink:href="#path3191"
       id="use31"
       transform="translate(2.71429,4)"
       width="100%"
       height="100%"
       style="fill-opacity:0.5;filter:url(#filter3315)" />
    <g
       id="g4298">
      <path
         d="M 200,15 C 97.88,15 15,97.88 15,200 15,302.12 97.88,385 200,385 302.12,385 385,302.12 385,200 385,97.88 302.12,15 200,15 Z m 0,179.8125 c 2.86645,0 5.18749,2.32105 5.1875,5.1875 0,2.86645 -2.32105,5.18749 -5.1875,5.1875 -2.86645,0 -5.18749,-2.32105 -5.1875,-5.1875 0,-2.86645 2.32105,-5.18749 5.1875,-5.1875 z"
         id="path3191" />
      <path
         style="fill:#333333"
         d="m 200,132.65625 c -37.15925,0 -67.34375,30.1845 -67.34375,67.34375 0,37.15925 30.1845,67.34375 67.34375,67.34375 37.15925,0 67.34375,-30.1845 67.34375,-67.34375 0,-37.15925 -30.1845,-67.34375 -67.34375,-67.34375 z m 0,62.90625 c 2.45408,0 4.4375,1.98342 4.4375,4.4375 0,2.45408 -1.98342,4.4375 -4.4375,4.4375 -2.45408,0 -4.4375,-1.98342 -4.4375,-4.4375 0,-2.45408 1.98342,-4.4375 4.4375,-4.4375 z"
         id="path3271" />
      <path
         style="fill:none;stroke:#000000;stroke-width:3.56200004"
         d="M 200,16.78125 C 301.15637,16.78125 383.21875,98.843633 383.21875,200 383.21877,301.15637 301.15637,383.21875 200,383.21875 98.843633,383.21875 16.78125,301.15637 16.78125,200 16.78125,98.843633 98.843633,16.78125 200,16.78125 Z"
         id="path3176" />
      <use
         x="0"
         y="0"
         xlink:href="#path3193"
         id="use3151"
         transform="matrix(-1,0,0,-1,400,400)"
         width="100%"
         height="100%" />
      <path
         style="fill:url(#radialGradient4380)"
         d="m 106.4375,200 c 0,-51.65143 41.91107,-93.59375 93.5625,-93.59375 L 200,18.5625 C 99.85143,18.5625 18.56249,99.85142 18.5625,200 Z"
         id="path3193" />
      <path
         style="fill:none;stroke:#000000;stroke-width:3"
         d="m 200,132.6875 c 37.16701,0 67.3125,30.14548 67.3125,67.3125 0,37.16701 -30.14549,67.31445 -67.3125,67.31445 -37.16701,0 -67.31445,-30.14744 -67.31445,-67.31445 0,-37.16702 30.14744,-67.3125 67.31445,-67.3125 z"
         id="path3215" />
      <path
         style="fill:url(#radialGradient3349)"
         d="m 237.9628,162.03721 c -20.95262,-20.9526 -54.97299,-20.95261 -75.9256,0 -20.9526,20.95262 -20.9526,54.97299 0,75.92559 20.95262,20.9526 54.97299,20.95261 75.9256,0 20.9526,-20.95261 20.9526,-54.97298 0,-75.92559 z m -34.29468,34.29468 c 2.02688,2.02689 2.02688,5.30934 0,7.33623 -2.02689,2.02689 -5.30934,2.02688 -7.33624,0 -2.02688,-2.02688 -2.02688,-5.30934 0,-7.33623 2.02689,-2.02688 5.30934,-2.02688 7.33624,0 z"
         id="path3223" />
      <path
         style="opacity:0.7425743;fill:#ffffff"
         d="m 243.95111,156.0489 c -7.06177,-7.06176 -15.40617,-12.05335 -24.2847,-15.00392 l -1.23744,3.71231 c 8.31532,2.76444 16.12455,7.46249 22.7379,14.07584 8.05626,8.05626 13.25594,17.88433 15.60055,28.24008 l 3.82279,-0.86178 c -2.50205,-11.05558 -8.03761,-21.56103 -16.6391,-30.16253 z"
         id="path3230" />
      <path
         style="opacity:0.7425743;fill:#ffffff"
         d="m 142.61386,190.25519 -3.88908,-0.66291 c -3.23715,19.17313 2.53847,39.5732 17.32411,54.35884 14.74595,14.74593 35.07597,20.5264 54.20416,17.34621 l -0.64082,-3.86699 c -17.92511,2.98388 -36.96183,-2.44619 -50.7791,-16.26346 -13.85228,-13.85228 -19.25338,-32.94694 -16.21927,-50.91169 z"
         id="path3232" />
      <path
         id="path4948"
         d="m 195.17122,148.58714 a 53.308947,53.537134 0 0 0 -48.46278,53.27175 53.308947,53.537134 0 0 0 48.46278,53.29379 l 0,-0.64669 c -0.18977,-0.0229 -0.38013,-0.0455 -0.55011,-0.0718 -3.74928,-0.57993 -6.72767,-1.30604 -9.82191,-2.39459 -3.30845,-1.16392 -8.4858,-3.5432 -8.4858,-3.89941 0,-0.13629 3.73934,-0.2476 8.30969,-0.2476 7.64486,0 8.3262,-0.0405 8.51543,-0.5065 0.11313,-0.27858 0.20573,-2.90986 0.20573,-5.84742 l 0,-5.34091 -1.00182,-0.20124 c -0.551,-0.11071 -7.79598,-0.2717 -16.10003,-0.35784 -8.30404,-0.0861 -15.21724,-0.23058 -15.36208,-0.32109 -0.33817,-0.21134 -2.83845,-3.7497 -3.05744,-4.32677 -0.14656,-0.38621 0.74282,-0.42393 7.5164,-0.31713 15.24342,0.24035 27.53098,0.28348 27.71538,0.0972 0.10348,-0.10451 0.2503,-4.17857 0.32593,-9.0532 l 0.13752,-8.8627 -0.94591,-0.39345 c -0.52007,-0.21641 -1.52497,-0.48159 -2.2334,-0.58904 -0.70842,-0.10745 -1.86767,-0.37972 -2.57609,-0.60543 -0.70843,-0.22571 -2.31849,-0.6626 -3.57791,-0.97061 -4.37971,-1.07112 -9.01999,-2.31341 -9.30368,-2.4907 -0.50363,-0.31473 -0.30504,-1.01929 0.35891,-1.27417 0.35421,-0.13598 1.15924,-0.32245 1.78895,-0.41493 1.81429,-0.26643 3.61711,-0.69789 4.9923,-1.1939 0.69923,-0.2522 2.95331,-0.838 5.00908,-1.30244 6.18716,-1.39782 6.27435,-1.43532 6.50899,-2.77221 0.11062,-0.63023 0.2084,-4.68595 0.21748,-9.01307 0.0152,-7.24779 -0.0227,-7.88003 -0.48414,-8.02663 -0.84988,-0.27001 -38.38582,-1.23073 -41.05818,-1.05089 -0.17529,0.0118 0.8162,-2.60619 1.74926,-4.61789 l 0.33599,-0.72358 5.55638,0.0989 5.55638,0.0989 0.14647,-0.67779 c 0.0806,-0.37272 0.19853,-3.78341 0.26219,-7.57948 0.11042,-6.5839 0.14405,-6.93089 0.72788,-7.52126 0.518,-0.52377 0.8862,-0.60511 2.3972,-0.53137 0.98194,0.0479 1.91205,0.21297 2.06681,0.36687 0.17456,0.17361 0.2477,3.11667 0.19287,7.75303 -0.079,6.67967 -0.0374,7.52419 0.39133,7.95766 0.40894,0.41353 1.03429,0.47344 4.24373,0.40476 l 3.76408,-0.0808 0.17889,-2.02602 c 0.0985,-1.11431 0.19513,-4.66751 0.21468,-7.89605 0.0305,-5.03439 0.0993,-5.89467 0.48301,-6.04357 0.24609,-0.0955 1.37313,-0.0589 2.50454,0.0814 l 2.0573,0.25495 0.14311,7.95936 0.14312,7.95936 4.36505,0.0797 4.36505,0.0803 0.0123,-3.40873 c 0.0363,-9.71268 0.53268,-25.34833 0.81341,-25.6322 0.0339,-0.0343 0.14303,-0.0649 0.28568,-0.0938 l 0,-0.43301 z m -45.49703,45.3757 c 0.0466,-0.005 0.0973,-0.004 0.15262,5.8e-4 0.30235,0.0272 5.3869,0.13562 11.29949,0.24081 12.35943,0.21991 18.53794,0.52224 18.93831,0.92709 0.1825,0.18453 0.15111,0.38707 -0.09,0.58226 -0.45688,0.36985 -8.74688,2.47506 -12.82066,3.25553 -1.65299,0.31669 -4.48669,0.90603 -6.29712,1.30979 -1.81042,0.40377 -5.14973,1.12282 -7.42024,1.59809 -2.27051,0.47528 -4.23479,0.86434 -4.36505,0.86434 -0.28285,0 -0.27857,-5.67261 0.006,-7.52521 0.14066,-0.91708 0.27051,-1.21878 0.59706,-1.25327 z m 0.1638,16.34213 c 0.0592,-0.0109 0.13961,0.01 0.24375,0.0503 0.64789,0.2514 6.17593,1.5831 14.06677,3.38838 10.73934,2.45696 14.87117,3.5979 14.97467,4.1357 0.0576,0.29912 -0.15106,0.52068 -0.57247,0.60769 -1.31974,0.2725 -6.30135,0.32613 -16.54783,0.17864 l -10.44581,-0.15037 -0.78323,-2.7496 c -0.43069,-1.51228 -0.86949,-3.3895 -0.97498,-4.17188 -0.12636,-0.93714 -0.13836,-1.25613 0.0391,-1.28887 z m 42.05776,6.03961 c 0.24544,0 0.44668,0.13025 0.44668,0.28944 0,0.15918 -0.12132,0.28943 -0.26946,0.28943 -0.14813,0 -0.34882,-0.13025 -0.44612,-0.28943 -0.0973,-0.15919 0.0235,-0.28944 0.2689,-0.28944 z"
         style="opacity:1;fill:#ff0000;fill-opacity:1;fill-rule:nonzero;stroke:none;stroke-width:10;stroke-linecap:round;stroke-miterlimit:4;stroke-dasharray:none;stroke-dashoffset:0;stroke-opacity:1" />
      <g
         transform="translate(-248.58757,-21.594476)"
         id="g4276">
        <rect
           style="opacity:1;fill:#666666;fill-opacity:1;fill-rule:nonzero;stroke:none;stroke-width:10;stroke-linecap:round;stroke-miterlimit:4;stroke-dasharray:none;stroke-dashoffset:0;stroke-opacity:1"
           id="rect4236"
           width="9.8207436"
           height="5.0591707"
           x="450.1174"
           y="172.6349"
           rx="2.10938" />
        <rect
           style="opacity:1;fill:#666666;fill-opacity:1;fill-rule:nonzero;stroke:none;stroke-width:10;stroke-linecap:round;stroke-miterlimit:4;stroke-dasharray:none;stroke-dashoffset:0;stroke-opacity:1"
           id="rect4238"
           width="24.849457"
           height="4.4639745"
           x="450.41501"
           y="178.58687"
           rx="2.10938" />
        <rect
           style="opacity:1;fill:#666666;fill-opacity:1;fill-rule:nonzero;stroke:none;stroke-width:10;stroke-linecap:round;stroke-miterlimit:4;stroke-dasharray:none;stroke-dashoffset:0;stroke-opacity:1"
           id="rect4240"
           width="27.825439"
           height="4.0175767"
           x="449.81982"
           y="184.39005"
           rx="2.10938" />
        <rect
           style="opacity:1;fill:#666666;fill-opacity:1;fill-rule:nonzero;stroke:none;stroke-width:10;stroke-linecap:round;stroke-miterlimit:4;stroke-dasharray:none;stroke-dashoffset:0;stroke-opacity:1"
           id="rect4242"
           width="12.350329"
           height="3.4223802"
           x="450.71259"
           y="191.38359"
           rx="2.10938" />
        <rect
           style="opacity:1;fill:#666666;fill-opacity:1;fill-rule:nonzero;stroke:none;stroke-width:10;stroke-linecap:round;stroke-miterlimit:4;stroke-dasharray:none;stroke-dashoffset:0;stroke-opacity:1"
           id="rect4244"
           width="12.647927"
           height="3.7199786"
           x="467.08051"
           y="190.93721"
           rx="2.10938" />
        <rect
           style="opacity:1;fill:#666666;fill-opacity:1;fill-rule:nonzero;stroke:none;stroke-width:10;stroke-linecap:round;stroke-miterlimit:4;stroke-dasharray:none;stroke-dashoffset:0;stroke-opacity:1"
           id="rect4246"
           width="30.355026"
           height="5.0591707"
           x="451.01019"
           y="197.18677"
           rx="2.10938" />
        <rect
           style="opacity:1;fill:#666666;fill-opacity:1;fill-rule:nonzero;stroke:none;stroke-width:10;stroke-linecap:round;stroke-miterlimit:4;stroke-dasharray:none;stroke-dashoffset:0;stroke-opacity:1"
           id="rect4248"
           width="17.558298"
           height="3.8687778"
           x="451.60541"
           y="203.73393"
           rx="2.10938" />
        <rect
           style="opacity:1;fill:#666666;fill-opacity:1;fill-rule:nonzero;stroke:none;stroke-width:10;stroke-linecap:round;stroke-miterlimit:4;stroke-dasharray:none;stroke-dashoffset:0;stroke-opacity:1"
           id="rect4250"
           width="12.20153"
           height="3.4223802"
           x="473.62769"
           y="205.07312"
           rx="2.10938" />
        <rect
           style="opacity:1;fill:#666666;fill-opacity:1;fill-rule:nonzero;stroke:none;stroke-width:10;stroke-linecap:round;stroke-miterlimit:4;stroke-dasharray:none;stroke-dashoffset:0;stroke-opacity:1"
           id="rect4252"
           width="17.558298"
           height="4.3151751"
           x="451.4566"
           y="209.38829"
           rx="2.10938" />
        <rect
           style="opacity:1;fill:#666666;fill-opacity:1;fill-rule:nonzero;stroke:none;stroke-width:10;stroke-linecap:round;stroke-miterlimit:4;stroke-dasharray:none;stroke-dashoffset:0;stroke-opacity:1"
           id="rect4254"
           width="21.575876"
           height="4.1663761"
           x="473.18127"
           y="210.57869"
           rx="2.10938" />
        <rect
           style="opacity:1;fill:#666666;fill-opacity:1;fill-rule:nonzero;stroke:none;stroke-width:10;stroke-linecap:round;stroke-miterlimit:4;stroke-dasharray:none;stroke-dashoffset:0;stroke-opacity:1"
           id="rect4256"
           width="16.367907"
           height="3.7199786"
           x="479.87723"
           y="218.91144"
           rx="2.10938" />
        <rect
           style="opacity:1;fill:#666666;fill-opacity:1;fill-rule:nonzero;stroke:none;stroke-width:10;stroke-linecap:round;stroke-miterlimit:4;stroke-dasharray:none;stroke-dashoffset:0;stroke-opacity:1"
           id="rect4258"
           width="50.294109"
           height="4.0175767"
           x="449.81982"
           y="227.24419"
           rx="2.10938" />
        <rect
           style="opacity:1;fill:#666666;fill-opacity:1;fill-rule:nonzero;stroke:none;stroke-width:10;stroke-linecap:round;stroke-miterlimit:4;stroke-dasharray:none;stroke-dashoffset:0;stroke-opacity:1"
           id="rect4260"
           width="19.939085"
           height="3.7199786"
           x="450.56381"
           y="233.94016"
           rx="2.10938" />
        <rect
           style="opacity:1;fill:#666666;fill-opacity:1;fill-rule:nonzero;stroke:none;stroke-width:10;stroke-linecap:round;stroke-miterlimit:4;stroke-dasharray:none;stroke-dashoffset:0;stroke-opacity:1"
           id="rect4262"
           width="15.62391"
           height="3.7199786"
           x="474.07407"
           y="234.68414"
           rx="2.10938" />
        <rect
           style="opacity:1;fill:#666666;fill-opacity:1;fill-rule:nonzero;stroke:none;stroke-width:10;stroke-linecap:round;stroke-miterlimit:4;stroke-dasharray:none;stroke-dashoffset:0;stroke-opacity:1"
           id="rect4264"
           width="34.5214"
           height="3.7199786"
           x="452.4982"
           y="240.33852"
           rx="2.10938" />
        <rect
           style="opacity:1;fill:#666666;fill-opacity:1;fill-rule:nonzero;stroke:none;stroke-width:10;stroke-linecap:round;stroke-miterlimit:4;stroke-dasharray:none;stroke-dashoffset:0;stroke-opacity:1"
           id="rect4266"
           width="19.195089"
           height="4.9103718"
           x="450.1174"
           y="245.54649"
           rx="2.10938" />
        <rect
           style="opacity:1;fill:#666666;fill-opacity:1;fill-rule:nonzero;stroke:none;stroke-width:10;stroke-linecap:round;stroke-miterlimit:4;stroke-dasharray:none;stroke-dashoffset:0;stroke-opacity:1"
           id="rect4268"
           width="13.243124"
           height="3.8687778"
           x="473.03247"
           y="245.84409"
           rx="2.10938" />
        <rect
           style="opacity:1;fill:#666666;fill-opacity:1;fill-rule:nonzero;stroke:none;stroke-width:10;stroke-linecap:round;stroke-miterlimit:4;stroke-dasharray:none;stroke-dashoffset:0;stroke-opacity:1"
           id="rect4270"
           width="34.6702"
           height="4.0175767"
           x="450.2662"
           y="251.79605"
           rx="2.10938" />
        <rect
           style="opacity:1;fill:#666666;fill-opacity:1;fill-rule:nonzero;stroke:none;stroke-width:10;stroke-linecap:round;stroke-miterlimit:4;stroke-dasharray:none;stroke-dashoffset:0;stroke-opacity:1"
           id="rect4272"
           width="14.433517"
           height="4.3151751"
           x="454.28378"
           y="257.59921"
           rx="2.10938" />
        <rect
           style="opacity:1;fill:#666666;fill-opacity:1;fill-rule:nonzero;stroke:none;stroke-width:10;stroke-linecap:round;stroke-miterlimit:4;stroke-dasharray:none;stroke-dashoffset:0;stroke-opacity:1"
           id="rect4274"
           width="14.879914"
           height="4.4639745"
           x="448.92703"
           y="264.14636"
           rx="2.10938" />
      </g>
    </g>
  </g>
</svg>
