<?xml version="1.0" encoding="UTF-8" standalone="no"?>
<!-- Created with Inkscape (http://www.inkscape.org/) -->

<svg
   xmlns:dc="http://purl.org/dc/elements/1.1/"
   xmlns:cc="http://creativecommons.org/ns#"
   xmlns:rdf="http://www.w3.org/1999/02/22-rdf-syntax-ns#"
   xmlns:svg="http://www.w3.org/2000/svg"
   xmlns="http://www.w3.org/2000/svg"
   xmlns:sodipodi="http://sodipodi.sourceforge.net/DTD/sodipodi-0.dtd"
   xmlns:inkscape="http://www.inkscape.org/namespaces/inkscape"
   width="96"
   height="96"
   viewBox="0 0 25.399999 25.399999"
   version="1.1"
   id="svg8"
   sodipodi:docname="pause.svg"
   inkscape:version="0.92.1 r15371">
  <defs
     id="defs2" />
  <sodipodi:namedview
     id="base"
     pagecolor="#ffffff"
     bordercolor="#666666"
     borderopacity="1.0"
     inkscape:pageopacity="0.0"
     inkscape:pageshadow="2"
     inkscape:zoom="1.979899"
     inkscape:cx="-12.15736"
     inkscape:cy="81.476452"
     inkscape:document-units="mm"
     inkscape:current-layer="layer1"
     showgrid="false"
     units="px"
     inkscape:window-width="1920"
     inkscape:window-height="1019"
     inkscape:window-x="0"
     inkscape:window-y="27"
     inkscape:window-maximized="1" />
  <metadata
     id="metadata5">
    <rdf:RDF>
      <cc:Work
         rdf:about="">
        <dc:format>image/svg+xml</dc:format>
        <dc:type
           rdf:resource="http://purl.org/dc/dcmitype/StillImage" />
        <dc:title />
      </cc:Work>
    </rdf:RDF>
  </metadata>
  <g
     inkscape:label="Capa 1"
     inkscape:groupmode="layer"
     id="layer1"
     transform="translate(0,-271.60001)">
    <path
       inkscape:connector-curvature="0"
       id="path3707"
       style="font-style:normal;font-variant:normal;font-weight:normal;font-stretch:normal;font-size:medium;line-height:1.25;font-family:FontAwesome;-inkscape-font-specification:FontAwesome;letter-spacing:0px;word-spacing:0px;fill:#000000;fill-opacity:1;stroke:none;stroke-width:0.61072046"
       d="m 23.169494,274.70298 v 19.19407 q 0,0.35444 -0.259011,0.61345 -0.259011,0.25901 -0.613447,0.25901 h -6.979662 q -0.354436,0 -0.613447,-0.25901 -0.259011,-0.25901 -0.259011,-0.61345 v -19.19407 q 0,-0.35443 0.259011,-0.61344 0.259011,-0.25901 0.613447,-0.25901 h 6.979662 q 0.354436,0 0.613447,0.25901 0.259011,0.25901 0.259011,0.61344 z m -12.214409,0 v 19.19407 q 0,0.35444 -0.259011,0.61345 -0.259011,0.25901 -0.613447,0.25901 H 3.1029647 q -0.354436,0 -0.6134469,-0.25901 -0.2590109,-0.25901 -0.2590109,-0.61345 v -19.19407 q 0,-0.35443 0.2590109,-0.61344 0.2590109,-0.25901 0.6134469,-0.25901 h 6.9796623 q 0.354436,0 0.613447,0.25901 0.259011,0.25901 0.259011,0.61344 z" />
  </g>
</svg>
