<?xml version="1.0" encoding="UTF-8" standalone="no"?>
<!-- Created with Inkscape (http://www.inkscape.org/) -->

<svg
   xmlns:dc="http://purl.org/dc/elements/1.1/"
   xmlns:cc="http://creativecommons.org/ns#"
   xmlns:rdf="http://www.w3.org/1999/02/22-rdf-syntax-ns#"
   xmlns:svg="http://www.w3.org/2000/svg"
   xmlns="http://www.w3.org/2000/svg"
   xmlns:sodipodi="http://sodipodi.sourceforge.net/DTD/sodipodi-0.dtd"
   xmlns:inkscape="http://www.inkscape.org/namespaces/inkscape"
   width="48"
   height="48"
   viewBox="0 0 12.7 12.7"
   version="1.1"
   id="svg8"
   inkscape:version="0.92.1 r15371"
   sodipodi:docname="yap.svg">
  <defs
     id="defs2" />
  <sodipodi:namedview
     id="base"
     pagecolor="#ffffff"
     bordercolor="#666666"
     borderopacity="1.0"
     inkscape:pageopacity="0.0"
     inkscape:pageshadow="2"
     inkscape:zoom="3.959798"
     inkscape:cx="-32.39328"
     inkscape:cy="25.933796"
     inkscape:document-units="mm"
     inkscape:current-layer="layer1"
     showgrid="false"
     units="px"
     inkscape:window-width="1920"
     inkscape:window-height="1019"
     inkscape:window-x="0"
     inkscape:window-y="27"
     inkscape:window-maximized="1" />
  <metadata
     id="metadata5">
    <rdf:RDF>
      <cc:Work
         rdf:about="">
        <dc:format>image/svg+xml</dc:format>
        <dc:type
           rdf:resource="http://purl.org/dc/dcmitype/StillImage" />
        <dc:title />
      </cc:Work>
    </rdf:RDF>
  </metadata>
  <g
     inkscape:label="Capa 1"
     inkscape:groupmode="layer"
     id="layer1"
     transform="translate(0,-284.29998)">
    <path
       style="fill:#aa0000;fill-opacity:1;stroke:none;stroke-width:1.0214237;stroke-miterlimit:4;stroke-dasharray:none"
       id="path5804"
       sodipodi:type="arc"
       sodipodi:cx="6.3499999"
       sodipodi:cy="290.64999"
       sodipodi:rx="6.0854168"
       sodipodi:ry="6.0854168"
       sodipodi:start="0"
       sodipodi:end="5.995014"
       sodipodi:open="true"
       d="m 12.435417,290.64999 a 6.0854168,6.0854168 0 0 1 -5.6473856,6.06964 6.0854168,6.0854168 0 0 1 -6.46038882,-5.19585 6.0854168,6.0854168 0 0 1 4.71734092,-6.81763 6.0854168,6.0854168 0 0 1 7.1395025,4.21437" />
    <text
       xml:space="preserve"
       style="font-style:normal;font-variant:normal;font-weight:normal;font-stretch:normal;font-size:6.0656991px;line-height:1.25;font-family:FontAwesome;-inkscape-font-specification:FontAwesome;letter-spacing:0px;word-spacing:0px;fill:#ffffff;fill-opacity:1;stroke:none;stroke-width:0.05686592"
       x="4.0621271"
       y="293.02203"
       id="text5971"><tspan
         sodipodi:role="line"
         id="tspan5969"
         x="4.0621271"
         y="293.02203"
         style="fill:#ffffff;stroke-width:0.05686592"></tspan></text>
    <path
       inkscape:connector-curvature="0"
       id="path5967"
       d="m 6.8662504,285.71462 c -0.04342,0 -0.07997,0.0151 -0.109984,0.0451 -0.03309,0.0303 -0.05006,0.0683 -0.05008,0.115 l 7e-6,0.35755 c 0,0.0417 0.01414,0.0783 0.04245,0.11005 0.02998,0.03 0.0659,0.0458 0.107586,0.0475 0.35839,0.0217 0.698416,0.10664 1.020136,0.25499 0.323381,0.14836 0.6034165,0.34176 0.8401205,0.58013 0.238245,0.23684 0.4317657,0.51676 0.5801377,0.84013 0.148344,0.32171 0.2325177,0.66175 0.2525217,1.02013 0.0017,0.0417 0.01747,0.0776 0.04748,0.10759 0.0314,0.0286 0.06909,0.0425 0.112488,0.0425 l 0.3575487,10e-6 c 0.04667,0 0.08499,-0.0167 0.114996,-0.0501 0.0333,-0.0333 0.04844,-0.0725 0.04506,-0.11746 -0.02167,-0.43675 -0.121672,-0.85434 -0.3000317,-1.25273 -0.178368,-0.40006 -0.423403,-0.75512 -0.7351167,-1.06517 -0.3101717,-0.31158 -0.6650967,-0.55677 -1.0651632,-0.73511 -0.398398,-0.17836 -0.815994,-0.27837 -1.252732,-0.30004 z m 7e-6,1.28021 c -0.04342,0 -0.0792,0.0141 -0.107558,0.0425 -0.03465,0.0304 -0.05247,0.0692 -0.05254,0.11745 l -7e-6,0.33761 c 0,0.0417 0.01336,0.0774 0.04003,0.10749 0.02843,0.0298 0.06336,0.0467 0.105034,0.05 0.381731,0.0367 0.707594,0.19086 0.977638,0.46257 0.271579,0.27016 0.425891,0.59591 0.462554,0.97762 0.0033,0.0417 0.02001,0.0767 0.05003,0.10504 0.02977,0.0269 0.06583,0.0401 0.107487,0.04 h 0.3375305 c 0.04837,0 0.08754,-0.0175 0.117563,-0.0525 0.03196,-0.0331 0.04582,-0.0734 0.04252,-0.12001 -0.02167,-0.2667 -0.08922,-0.52177 -0.202565,-0.76514 -0.111695,-0.24336 -0.262528,-0.4592 -0.4525555,-0.64756 -0.188493,-0.18991 -0.40421,-0.34086 -0.647568,-0.45257 -0.243344,-0.11337 -0.498433,-0.18088 -0.765132,-0.20255 z"
       style="font-style:normal;font-variant:normal;font-weight:normal;font-stretch:normal;font-size:medium;line-height:1.25;font-family:FontAwesome;-inkscape-font-specification:FontAwesome;letter-spacing:0px;word-spacing:0px;fill:#ffffff;fill-opacity:1;stroke:none;stroke-width:0.04200633" />
    <path
       style="font-style:normal;font-variant:normal;font-weight:normal;font-stretch:normal;font-size:medium;line-height:1.25;font-family:FontAwesome;-inkscape-font-specification:FontAwesome;letter-spacing:0px;word-spacing:0px;fill:#ffffff;fill-opacity:1;stroke:none;stroke-width:0.04200633"
       d="m 10.267885,292.32339 c -7e-6,-0.0434 -0.01513,-0.0799 -0.0451,-0.11 -0.03026,-0.0331 -0.06829,-0.0501 -0.115004,-0.0501 H 9.7502223 c -0.04171,-1e-5 -0.07837,0.0142 -0.110075,0.0425 -0.03,0.03 -0.04581,0.0659 -0.0475,0.1076 -0.0217,0.35838 -0.106649,0.69842 -0.2550003,1.02013 -0.1483575,0.32339 -0.3417481,0.60342 -0.5801308,0.84012 -0.2368375,0.23825 -0.5167615,0.43177 -0.8401291,0.58014 -0.3217008,0.14835 -0.6617498,0.23252 -1.0201192,0.25253 -0.041715,0.002 -0.077589,0.0175 -0.1075995,0.0475 -0.02858,0.0314 -0.042502,0.0691 -0.042494,0.1125 l -1.1e-5,0.35755 c 2.1e-6,0.0467 0.016692,0.085 0.050097,0.115 0.033305,0.0333 0.072495,0.0484 0.1174773,0.0451 0.4367538,-0.0217 0.8543452,-0.12167 1.2527331,-0.30003 0.4000699,-0.17837 0.755119,-0.4234 1.065172,-0.73511 0.3115805,-0.31017 0.5567705,-0.6651 0.7351085,-1.06517 0.1783607,-0.39839 0.2783657,-0.816 0.3000407,-1.25273 z m -1.2802108,10e-6 c 0,-0.0434 -0.014121,-0.0792 -0.042504,-0.10756 -0.030406,-0.0346 -0.069226,-0.0524 -0.1174434,-0.0525 l -0.3376081,-1e-5 c -0.041712,0 -0.077428,0.0134 -0.1074739,0.04 -0.029805,0.0284 -0.046726,0.0634 -0.050007,0.10502 -0.036698,0.38172 -0.1908701,0.70759 -0.462574,0.97763 -0.2701672,0.27158 -0.5959064,0.42589 -0.9776176,0.46256 -0.04173,0.003 -0.07671,0.02 -0.1050259,0.05 -0.026886,0.0297 -0.040089,0.0658 -0.040011,0.10747 l 4e-7,0.33753 c 1.4e-6,0.0484 0.017472,0.0876 0.052494,0.11755 0.033077,0.032 0.073403,0.0458 0.120013,0.0425 0.2666996,-0.0217 0.5217672,-0.0892 0.7651287,-0.20257 0.2433575,-0.11169 0.4592115,-0.26252 0.6475715,-0.45255 0.1899138,-0.1885 0.3408572,-0.40421 0.4525608,-0.64757 0.1133789,-0.24334 0.1808861,-0.49844 0.2025596,-0.76513 z"
       id="path5977"
       inkscape:connector-curvature="0" />
  </g>
</svg>
